<?xml version="1.0" encoding="utf-8"?>
<!-- Generator: Adobe Illustrator 24.1.2, SVG Export Plug-In . SVG Version: 6.00 Build 0)  -->
<svg version="1.1" id="Слой_1" xmlns="http://www.w3.org/2000/svg" xmlns:xlink="http://www.w3.org/1999/xlink" x="0px" y="0px"
	 viewBox="0 0 50 50" style="enable-background:new 0 0 50 50;" xml:space="preserve">
<style type="text/css">
	.st0{fill:#FFFFFF;}
</style>
<path class="st0" d="M15,20v3h2.6c0.4,0,1.5-0.2,1.5-1.6c0-1.3-1.5-1.4-1.8-1.4H15z"/>
<path class="st0" d="M41,6H9C7.3,6,6,7.3,6,9v32c0,1.7,1.3,3,3,3h32c1.7,0,3-1.3,3-3V9C44,7.3,42.7,6,41,6z M22,33.3
	C20.5,34,19,34,18.6,34c0,0,0,0,0,0H11c-0.6,0-1-0.4-1-1V17c0-0.6,0.4-1,1-1h7.3c0.3,0,1.7-0.1,3.1,0.5S24,18.6,24,21
	c0,1.5-0.5,2.5-1.1,3.2c0.3,0.2,0.6,0.2,0.9,0.6c0.7,0.8,1.2,2,1.2,3.6C25,31,23.5,32.6,22,33.3z M30.1,28.5
	c0.1,0.2,0.2,0.5,0.5,0.7C31,29.7,31.8,30,33,30s2-0.3,2.5-0.8c0.1-0.1,0.1-0.1,0.1-0.2h2.3c-0.1,0.6-0.3,1.1-0.8,1.6
	c-0.7,0.8-1.8,1.4-3.9,1.4c-0.8,0-2.2-0.3-3.3-1s-1.9-2-1.9-4.5c0-2.6,0.9-3.9,2-4.6s2.4-0.9,3-0.9c2.4,0,3.5,0.9,4.2,2.2
	c0.6,1,0.7,2.5,0.8,3.8h-3h-4c-0.6,0-1,0.4-1,1C30,28,30,28.3,30.1,28.5z"/>
<path class="st0" d="M33.1,22.6c-0.6,0-1,0.1-1.4,0.2c-0.3,0.2-0.6,0.4-0.8,0.6c-0.2,0.2-0.3,0.5-0.4,0.8c-0.1,0.2-0.2,0.5-0.2,0.8
	h5.4c-0.1-0.8-0.3-1.4-0.8-1.8C34.5,22.8,33.9,22.6,33.1,22.6z"/>
<path class="st0" d="M15,26v4H18c0.3,0,2-0.1,2-1.9c0-1.8-1.4-2.1-2-2.1H15z"/>
<path class="st0" d="M41,4H9C6.3,4,4,6.3,4,9v32c0,2.7,2.3,5,5,5h32c2.7,0,5-2.3,5-5V9C46,6.3,43.7,4,41,4z M30,16h6c0,0,0,0,0,0
	c0.6,0,1,0.5,1,1c0,0.6-0.5,1-1,1h-6c0,0,0,0,0,0c-0.6,0-1-0.5-1-1C29,16.4,29.4,16,30,16z M21.1,31.5c-1,0.5-2.3,0.5-2.5,0.5H12V18
	h6.3c0.5,0,1.4,0,2.2,0.4c0.8,0.4,1.5,0.9,1.5,2.6c0,1.9-0.7,2.2-1.2,2.5c-0.5,0.3-0.7,0.9-0.4,1.3c0.1,0.2,0.3,0.4,0.6,0.5
	c0.4,0.1,0.9,0.4,1.3,0.8s0.7,1.1,0.7,2.3C23,30.3,22.2,31,21.1,31.5z M40,28C40,28,40,28,40,28C40,28,40,28,40,28
	c0,0.1,0,0.2,0,0.3c-0.1,1.1-0.4,2.5-1.4,3.6c-1.1,1.2-2.9,2.1-5.4,2.1c-1.2,0-2.9-0.3-4.4-1.4S26,29.4,26,26.5
	c0-3.2,1.3-5.2,2.9-6.3S32.1,19,33,19c3,0,5,1.4,5.9,3.2c1,1.8,1.1,3.9,1.1,5.7C40,27.9,40,27.9,40,28C40,27.9,40,28,40,28z"/>
</svg>
