<?xml version="1.0" encoding="utf-8"?>
<!-- Generator: Adobe Illustrator 24.1.2, SVG Export Plug-In . SVG Version: 6.00 Build 0)  -->
<svg version="1.1" id="Слой_1" xmlns="http://www.w3.org/2000/svg" xmlns:xlink="http://www.w3.org/1999/xlink" x="0px" y="0px"
	 viewBox="0 0 50 50" style="enable-background:new 0 0 50 50;" xml:space="preserve">
<style type="text/css">
	.st0{fill:#FFFFFF;}
</style>
<path class="st0" d="M44.4,8c0.2,0,0.3,0,0.4,0s0.1,0,0.1,0.2s0.1,0.5-0.1,1.1l0,0l-6.5,33.8c0,0-0.2,0.3-0.5,0.6s-0.7,0.5-1.6,0.1
	l-9.7-7.6L26.4,36l0,0l-2.9-2.2l16.3-19.2c0.4-0.4,0.3-1.1-0.1-1.4C39.5,13.1,39.2,13,39,13s-0.4,0.1-0.5,0.2L14.8,28.9l-8.9-3.1
	c0,0-0.9-0.5-0.9-0.8c0,0,0,0,0-0.1s0.2-0.2,0.3-0.3C5.6,24.5,6,24.3,6,24.3l0,0l0,0c0,0,9.1-3.9,18.4-7.9c4.6-2,9.3-4,12.9-5.5
	s6.2-2.6,6.4-2.7C44,8.1,44.2,8,44.4,8z"/>
<path class="st0" d="M46.7,7.8c-0.2-0.6-0.5-1.1-1-1.4C45.2,6.1,44.9,6,44.4,6s-1,0.2-1.4,0.3c-0.4,0.2-2.9,1.2-6.5,2.7
	s-8.3,3.5-12.9,5.5c-9.3,4-18.4,7.9-18.4,7.9h0.1c0,0-0.5,0.2-1.1,0.6c-0.3,0.2-0.6,0.4-0.8,0.8c-0.2,0.4-0.5,0.9-0.4,1.5
	c0.2,1.9,2.2,2.5,2.2,2.5l8.9,3c0.2,0.8,2.7,9,3.2,10.8c0.3,1,0.6,1.5,0.9,1.9c0.1,0.2,0.3,0.3,0.5,0.4c0.1,0,0.1,0.1,0.2,0.1H19
	c1,0.4,1.9-0.3,1.9-0.3l5.5-5.1l8.9,6.9l0.1,0.1c1.6,0.7,3,0.3,3.7-0.3c0.7-0.6,1.1-1.4,1.1-1.4v-0.1l6.5-34
	C46.9,9,46.9,8.4,46.7,7.8z M21.2,33.3c0,0,0,0-0.1,0.1c0,0,0,0.1-0.1,0.1c-0.1,0.1-0.1,0.2-0.1,0.4l-1.6,7.2c0-0.1,0-0.1-0.1-0.2
	c-0.5-1.6-2.8-9.4-3.2-10.5l17.6-11.6L21.2,33.3z"/>
<polygon class="st0" points="22.6,35.7 24.9,37.4 21.6,40.4 "/>
</svg>
