<?xml version="1.0" encoding="utf-8"?>
<!-- Generator: Adobe Illustrator 24.1.2, SVG Export Plug-In . SVG Version: 6.00 Build 0)  -->
<svg version="1.1" id="Слой_1" xmlns="http://www.w3.org/2000/svg" xmlns:xlink="http://www.w3.org/1999/xlink" x="0px" y="0px"
	 viewBox="0 0 50 50" style="enable-background:new 0 0 50 50;" xml:space="preserve">
<style type="text/css">
	.st0{fill:#FFFFFF;}
</style>
<path class="st0" d="M25,4C13.4,4,4,13.4,4,25s9.4,21,21,21s21-9.4,21-21S36.6,4,25,4z M39.8,18.2c-0.7,1-1.6,1.9-2.6,2.7
	c0,0.1,0,0.2,0,0.3c0,3.9-1.5,8.1-4.3,11.3S25.9,38,20.5,38c-3.3,0-6.4-1-9-2.6c-0.3-0.2-0.5-0.6-0.5-1c0.1-0.5,0.6-0.9,1.1-0.9
	c0.4,0,0.8,0.1,1.2,0.1c1.5,0,2.9-0.4,4.2-1c-1.6-0.8-2.9-2.1-3.5-3.9c-0.1-0.4,0-0.8,0.3-1c-1.3-1.2-2.2-2.9-2.2-4.8v-0.1
	c0-0.5,0.3-0.9,0.8-1c-0.5-0.9-0.7-1.9-0.7-2.9c0-1.2,0.3-2.3,0.9-3.3c0.1-0.1,0.1-0.2,0.2-0.3c0.4-0.3,1.1-0.3,1.4,0.1
	c2.3,2.8,5.7,4.7,9.5,5.2c0,0,0,0,0-0.1c0-3.6,2.9-6.5,6.5-6.5c1.6,0,3,0.7,4.2,1.6c1-0.2,2-0.6,2.9-1.1c0.2-0.1,0.5-0.2,0.8-0.1
	c0.5,0.2,0.8,0.7,0.6,1.3c-0.1,0.3-0.3,0.6-0.5,0.9c0.3-0.1,0.6,0,0.8,0.1C40,17.1,40.1,17.8,39.8,18.2z"/>
<path class="st0" d="M25,2C12.3,2,2,12.3,2,25c0,12.7,10.3,23,23,23s23-10.3,23-23C48,12.3,37.7,2,25,2z M35.7,19.7
	c-0.3,0.2-0.4,0.5-0.4,0.9c0,0.2,0,0.4,0,0.7c0,3.4-1.3,7.1-3.8,10s-6.1,4.8-11,4.8c-1.7,0-3.2-0.3-4.7-0.8c1.8-0.4,3.6-1,5-2.2
	c0.4-0.3,0.5-1,0.2-1.4c-0.2-0.2-0.5-0.4-0.8-0.4c-1.4,0-2.5-0.8-3.3-1.9c0.3,0,0.6,0,0.9-0.1c0.5-0.1,0.8-0.7,0.7-1.2
	c-0.1-0.4-0.4-0.6-0.8-0.7c-1.7-0.3-2.9-1.6-3.4-3.2c0.4,0.1,0.8,0.3,1.3,0.3c0.6,0,1-0.4,1-1c0-0.3-0.2-0.7-0.4-0.9
	c-1.2-0.8-2-2.2-2-3.8c0-0.3,0.2-0.6,0.2-0.9c2.8,2.8,6.6,4.7,10.9,4.9c0.6,0,1-0.4,1-0.9c0-0.1,0-0.2,0-0.3c-0.1-0.3-0.1-0.7-0.1-1
	c0-2.5,2-4.5,4.5-4.5c1.3,0,2.5,0.5,3.3,1.4c0.2,0.3,0.6,0.4,0.9,0.3c0.2,0,0.3-0.1,0.4-0.2c0,0,0,0,0,0C34.8,18,34.7,18.6,35,19
	c0.2,0.3,0.5,0.5,0.9,0.5C35.8,19.6,35.7,19.7,35.7,19.7z"/>
</svg>
