<?xml version="1.0" encoding="utf-8"?>
<!-- Generator: Adobe Illustrator 24.1.2, SVG Export Plug-In . SVG Version: 6.00 Build 0)  -->
<svg version="1.1" id="Слой_1" xmlns="http://www.w3.org/2000/svg" xmlns:xlink="http://www.w3.org/1999/xlink" x="0px" y="0px"
	 viewBox="0 0 50 50" style="enable-background:new 0 0 50 50;" xml:space="preserve">
<style type="text/css">
	.st0{fill:#FFFFFF;}
</style>
<path class="st0" d="M45.1,14.3c-0.4-2.2-2.3-3.8-4.5-4.3C37.1,9.5,31,9,24.4,9c-6.6,0-12.8,0.5-16.1,1.2c-2.2,0.5-4.1,2-4.5,4.3
	C3.4,16.9,3,20.5,3,25s0.4,8,0.9,10.5c0.4,2.2,2.3,3.8,4.5,4.3c3.5,0.7,9.5,1.2,16.1,1.2s12.6-0.5,16.1-1.2c2.2-0.5,4.1-2,4.5-4.3
	c0.4-2.5,0.9-6.1,1-10.6C46.1,20.4,45.6,16.8,45.1,14.3z M19,33V17l14,8L19,33z"/>
<path class="st0" d="M43.1,14.8c-0.2-1.3-1.4-2.3-2.9-2.7c-2.8-0.5-8.6-1.1-15.8-1.1c-6.3,0-12.4,0.5-15.7,1.2
	c-0.5,0.2-2.6,0.8-2.9,2.7C5.4,17,5,20.4,5,25c0,3.7,0.3,7.4,1.1,10.2c0.2,1.3,1.4,2.3,2.9,2.7c3.5,0.8,9.6,1.2,15.6,1.2
	s12-0.5,15.6-1.2c0.6-0.2,2.6-0.8,2.9-2.7c0.4-2.5,0.9-6,1-10.3C44.1,21.4,43.7,18,43.1,14.8z M21,29.6v-9.2l8,4.6L21,29.6z"/>
</svg>
